<svg width="1560" height="610" viewBox="0 0 1560 610" fill="none" xmlns="http://www.w3.org/2000/svg">
<path d="M1027 532.2L1026.23 531.194L1015 539.814L1015.77 540.819L1027 532.2Z" fill="#09E6DF"/>
<path d="M1025.76 541.228L1017.14 530L1016.14 530.772L1024.76 542L1025.76 541.228Z" fill="#09E6DF"/>
<path d="M1336 398.2L1335.23 397.194L1324 405.813L1324.77 406.819L1336 398.2Z" fill="#8643DC"/>
<path d="M1334.76 407.228L1326.14 396L1325.14 396.772L1333.76 408L1334.76 407.228Z" fill="#8643DC"/>
<path d="M283.415 501.416C285.302 501.738 287.093 500.471 287.415 498.584C287.738 496.698 286.47 494.907 284.584 494.584C282.697 494.262 280.906 495.529 280.584 497.416C280.261 499.302 281.529 501.093 283.415 501.416Z" fill="#43DC77"/>
<path d="M514.415 65.4158C516.302 65.7384 518.093 64.4707 518.415 62.5843C518.738 60.6978 517.47 58.9069 515.584 58.5843C513.697 58.2616 511.906 59.5293 511.584 61.4157C511.261 63.3022 512.529 65.0931 514.415 65.4158Z" fill="#F57DC8"/>
</svg>
