<svg width="1560" height="610" viewBox="0 0 1560 610" fill="none" xmlns="http://www.w3.org/2000/svg">
<path d="M1027 532.2L1026.23 531.194L1015 539.814L1015.77 540.819L1027 532.2Z" fill="#09E6DF"/>
<path d="M1025.76 541.228L1017.14 530L1016.14 530.772L1024.76 542L1025.76 541.228Z" fill="#09E6DF"/>
<path d="M1336 398.2L1335.23 397.194L1324 405.813L1324.77 406.819L1336 398.2Z" fill="#8643DC"/>
<path d="M1334.76 407.228L1326.14 396L1325.14 396.772L1333.76 408L1334.76 407.228Z" fill="#8643DC"/>
<path d="M293.415 421.416C295.302 421.738 297.093 420.471 297.415 418.584C297.738 416.698 296.47 414.907 294.584 414.584C292.697 414.262 290.906 415.529 290.584 417.416C290.261 419.302 291.529 421.093 293.415 421.416Z" fill="#43DC77"/>
<path d="M674.642 165.667C676.532 166.071 678.277 164.846 678.539 162.931C678.801 161.016 677.481 159.136 675.591 158.732C673.7 158.328 671.956 159.553 671.693 161.468C671.431 163.383 672.751 165.263 674.642 165.667Z" fill="#F57DC8" fill-opacity="0.7"/>
</svg>
