<svg width="1056" height="484" viewBox="0 0 1056 484" fill="none" xmlns="http://www.w3.org/2000/svg">
<path d="M747 474.2L746.229 473.194L735 481.814L735.772 482.819L747 474.2Z" fill="#09E6DF"/>
<path d="M745.764 483.228L737.145 472L736.139 472.772L744.758 484L745.764 483.228Z" fill="#09E6DF"/>
<path d="M1056 340.2L1055.23 339.194L1044 347.813L1044.77 348.819L1056 340.2Z" fill="#8643DC"/>
<path d="M1054.76 349.228L1046.14 338L1045.14 338.772L1053.76 350L1054.76 349.228Z" fill="#8643DC"/>
<path d="M3.41522 443.416C5.30169 443.738 7.09255 442.471 7.41522 440.584C7.73789 438.698 6.47019 436.907 4.58372 436.584C2.69725 436.262 0.906391 437.529 0.583719 439.416C0.261046 441.302 1.52875 443.093 3.41522 443.416Z" fill="#43DC77"/>
<path d="M234.415 7.41575C236.302 7.73842 238.093 6.47072 238.415 4.58425C238.738 2.69778 237.47 0.906923 235.584 0.584251C233.697 0.261578 231.906 1.52928 231.584 3.41575C231.261 5.30222 232.529 7.09308 234.415 7.41575Z" fill="#F57DC8"/>
</svg>
