<svg width="119" height="40" viewBox="0 0 119 40" fill="none" xmlns="http://www.w3.org/2000/svg">
<path d="M0 20C0 8.95431 8.95431 0 20 0H38C39.1046 0 40 0.895431 40 2V20C40 31.0457 31.0457 40 20 40C8.95431 40 0 31.0457 0 20Z" fill="#8643DC"/>
<path d="M13 11.0076C13 4.93244 17.9249 0.00756836 24 0.00756836H38C39.1046 0.00756836 40 0.902999 40 2.00757V15.0076C40 21.0827 35.0751 26.0076 29 26.0076H13V11.0076Z" fill="#FF59C1"/>
<path d="M24.96 19.26H29.7V27.63C28.58 28.45 27.2 29.12 25.56 29.64C23.94 30.14 22.4 30.39 20.94 30.39C18.82 30.39 16.9 29.92 15.18 28.98C13.48 28.02 12.14 26.71 11.16 25.05C10.18 23.39 9.69 21.53 9.69 19.47C9.69 17.43 10.19 15.59 11.19 13.95C12.21 12.29 13.6 10.99 15.36 10.05C17.14 9.11 19.12 8.64 21.3 8.64C22.86 8.64 24.42 8.93 25.98 9.51C27.54 10.07 28.86 10.83 29.94 11.79L26.82 15.63C26.06 14.91 25.18 14.34 24.18 13.92C23.2 13.5 22.23 13.29 21.27 13.29C20.15 13.29 19.14 13.56 18.24 14.1C17.34 14.64 16.63 15.38 16.11 16.32C15.59 17.26 15.33 18.31 15.33 19.47C15.33 20.65 15.59 21.72 16.11 22.68C16.63 23.62 17.35 24.36 18.27 24.9C19.19 25.44 20.21 25.71 21.33 25.71C22.39 25.71 23.6 25.37 24.96 24.69V19.26Z" fill="white"/>
<path d="M57.28 8.97C59.96 8.97 62.04 9.62 63.52 10.92C65 12.2 65.74 14.01 65.74 16.35C65.74 18.83 65 20.76 63.52 22.14C62.04 23.5 59.96 24.18 57.28 24.18H53.53V30H48.04V8.97H57.28ZM57.01 19.8C58.13 19.8 58.99 19.52 59.59 18.96C60.21 18.4 60.52 17.59 60.52 16.53C60.52 15.51 60.21 14.73 59.59 14.19C58.99 13.63 58.13 13.35 57.01 13.35H53.53V19.8H57.01ZM68.5806 7.74H73.9206V30H68.5806V7.74ZM93.9972 13.77V30H88.6572V27.36C87.5572 29.24 85.8272 30.2 83.4672 30.24C81.7072 30.24 80.2972 29.68 79.2372 28.56C78.1972 27.42 77.6772 25.91 77.6772 24.03V13.77H83.0172V22.5C83.0172 23.42 83.2472 24.14 83.7072 24.66C84.1872 25.18 84.8272 25.44 85.6272 25.44C86.5672 25.42 87.3072 25.08 87.8472 24.42C88.3872 23.74 88.6572 22.86 88.6572 21.78V13.77H93.9972ZM108.909 18.9C106.809 17.8 105.089 17.25 103.749 17.25C103.289 17.25 102.919 17.34 102.639 17.52C102.359 17.68 102.219 17.93 102.219 18.27C102.219 18.63 102.439 18.92 102.879 19.14C103.319 19.36 104.019 19.6 104.979 19.86C106.139 20.2 107.099 20.54 107.859 20.88C108.639 21.2 109.309 21.7 109.869 22.38C110.429 23.04 110.709 23.91 110.709 24.99C110.709 26.63 110.069 27.92 108.789 28.86C107.529 29.78 105.879 30.24 103.839 30.24C102.459 30.24 101.139 30.05 99.8791 29.67C98.6191 29.27 97.4991 28.69 96.5191 27.93L98.1991 24.48C99.1191 25.12 100.079 25.62 101.079 25.98C102.099 26.32 103.059 26.49 103.959 26.49C104.479 26.49 104.889 26.41 105.189 26.25C105.509 26.07 105.669 25.82 105.669 25.5C105.669 25.1 105.439 24.79 104.979 24.57C104.539 24.35 103.839 24.11 102.879 23.85C101.739 23.51 100.799 23.18 100.059 22.86C99.3191 22.52 98.6691 22.02 98.1091 21.36C97.5691 20.7 97.2991 19.84 97.2991 18.78C97.2991 17.14 97.9191 15.86 99.1591 14.94C100.399 14 101.999 13.53 103.959 13.53C105.139 13.53 106.299 13.69 107.439 14.01C108.599 14.33 109.689 14.8 110.709 15.42L108.909 18.9ZM115.197 25.05C115.957 25.05 116.577 25.29 117.057 25.77C117.537 26.25 117.777 26.87 117.777 27.63C117.777 28.39 117.537 29.02 117.057 29.52C116.577 30 115.957 30.24 115.197 30.24C114.457 30.24 113.847 30 113.367 29.52C112.887 29.02 112.647 28.39 112.647 27.63C112.647 26.87 112.877 26.25 113.337 25.77C113.817 25.29 114.437 25.05 115.197 25.05Z" fill="#25202F"/>
</svg>
